<svg width="32" height="32" viewBox="0 0 32 32" fill="none" xmlns="http://www.w3.org/2000/svg">
<path d="M7.33329 23.3333H5.33329V8.66668H15.7333L14.6666 9.72001C14.4156 9.96931 14.2738 10.3081 14.2726 10.662C14.2713 11.0158 14.4107 11.3556 14.66 11.6067C14.9093 11.8577 15.2481 11.9995 15.6019 12.0008C15.9557 12.002 16.2956 11.8626 16.5466 11.6133L19.88 8.28001C20.0049 8.15606 20.1041 8.00859 20.1718 7.84611C20.2395 7.68363 20.2744 7.50936 20.2744 7.33334C20.2744 7.15733 20.2395 6.98305 20.1718 6.82057C20.1041 6.65809 20.0049 6.51063 19.88 6.38668L16.5466 3.05334C16.2968 2.80501 15.9589 2.66562 15.6066 2.66562C15.2544 2.66562 14.9164 2.80501 14.6666 3.05334C14.5417 3.17729 14.4425 3.32476 14.3748 3.48724C14.3071 3.64972 14.2722 3.82399 14.2722 4.00001C14.2722 4.17603 14.3071 4.3503 14.3748 4.51278C14.4425 4.67526 14.5417 4.82273 14.6666 4.94668L15.72 6.00001H3.99996C3.64634 6.00001 3.3072 6.14049 3.05715 6.39053C2.8071 6.64058 2.66663 6.97972 2.66663 7.33334V24.6667C2.66663 25.0203 2.8071 25.3594 3.05715 25.6095C3.3072 25.8595 3.64634 26 3.99996 26H7.33329C7.68691 26 8.02605 25.8595 8.2761 25.6095C8.52615 25.3594 8.66663 25.0203 8.66663 24.6667C8.66663 24.3131 8.52615 23.9739 8.2761 23.7239C8.02605 23.4738 7.68691 23.3333 7.33329 23.3333ZM28 6.00001H24.6666C24.313 6.00001 23.9739 6.14049 23.7238 6.39053C23.4738 6.64058 23.3333 6.97972 23.3333 7.33334C23.3333 7.68696 23.4738 8.0261 23.7238 8.27615C23.9739 8.5262 24.313 8.66668 24.6666 8.66668H26.6666V23.3333H15.5066L16.56 22.28C16.6849 22.1561 16.7841 22.0086 16.8518 21.8461C16.9195 21.6836 16.9544 21.5094 16.9544 21.3333C16.9544 21.1573 16.9195 20.9831 16.8518 20.8206C16.7841 20.6581 16.6849 20.5106 16.56 20.3867C16.3101 20.1383 15.9722 19.999 15.62 19.999C15.2677 19.999 14.9298 20.1383 14.68 20.3867L11.3466 23.72C11.2217 23.844 11.1225 23.9914 11.0548 24.1539C10.9871 24.3164 10.9522 24.4907 10.9522 24.6667C10.9522 24.8427 10.9871 25.017 11.0548 25.1794C11.1225 25.3419 11.2217 25.4894 11.3466 25.6133L14.68 28.9467C14.931 29.196 15.2709 29.3353 15.6247 29.3341C15.9785 29.3328 16.3173 29.1911 16.5666 28.94C16.8159 28.6889 16.9553 28.3491 16.954 27.9953C16.9528 27.6415 16.811 27.3026 16.56 27.0533L15.5066 26H28C28.3536 26 28.6927 25.8595 28.9428 25.6095C29.1928 25.3594 29.3333 25.0203 29.3333 24.6667V7.33334C29.3333 6.97972 29.1928 6.64058 28.9428 6.39053C28.6927 6.14049 28.3536 6.00001 28 6.00001Z" fill="#0061FF"/>
</svg>
