<svg width="32" height="32" viewBox="0 0 32 32" fill="none" xmlns="http://www.w3.org/2000/svg">
<path d="M28 18.6667C27.6464 18.6667 27.3073 18.8071 27.0572 19.0572C26.8072 19.3072 26.6667 19.6464 26.6667 20L26.6667 24.7867L20.5867 18.6667C20.4623 18.5376 20.3132 18.435 20.1483 18.3649C19.9833 18.2948 19.8059 18.2586 19.6267 18.2586C19.4475 18.2586 19.2701 18.2948 19.1051 18.3649C18.9402 18.435 18.7911 18.5376 18.6667 18.6667C18.4184 18.9165 18.279 19.2544 18.279 19.6067C18.279 19.9589 18.4184 20.2968 18.6667 20.5467L24.7867 26.6667L20 26.6667C19.6464 26.6667 19.3073 26.8071 19.0572 27.0572C18.8072 27.3072 18.6667 27.6464 18.6667 28C18.6667 28.3536 18.8072 28.6927 19.0572 28.9428C19.3073 29.1928 19.6464 29.3333 20 29.3333L28 29.3333C28.1743 29.3312 28.3464 29.295 28.5067 29.2267C28.8325 29.0914 29.0914 28.8325 29.2267 28.5067C29.295 28.3464 29.3313 28.1742 29.3334 28L29.3334 20C29.3334 19.6464 29.1929 19.3072 28.9428 19.0572C28.6928 18.8071 28.3537 18.6667 28 18.6667ZM11.6 13.3333C11.8551 13.5518 12.1832 13.6659 12.5188 13.6529C12.8543 13.64 13.1727 13.5009 13.4101 13.2634C13.6476 13.0259 13.7867 12.7076 13.7997 12.3721C13.8126 12.0365 13.6985 11.7084 13.48 11.4533L5.12004 3.07999C4.99545 2.95642 4.8477 2.85865 4.68525 2.7923C4.5228 2.72594 4.34885 2.69231 4.17337 2.69333C3.9979 2.69231 3.82395 2.72594 3.6615 2.7923C3.49905 2.85865 3.35129 2.95642 3.22671 3.07999C3.10174 3.20394 3.00254 3.35141 2.93485 3.51389C2.86716 3.67637 2.83231 3.85064 2.83231 4.02666C2.83231 4.20267 2.86716 4.37695 2.93485 4.53943C3.00254 4.70191 3.10174 4.84937 3.22671 4.97332L11.6 13.3333ZM20 5.33332L24.7867 5.33332L3.05338 27.0533C2.80231 27.3044 2.66125 27.6449 2.66125 28C2.66125 28.3551 2.80231 28.6956 3.05338 28.9467C3.30445 29.1977 3.64497 29.3388 4.00004 29.3388C4.35511 29.3388 4.69564 29.1977 4.94671 28.9467L26.6667 7.21332L26.6667 12C26.6667 12.3536 26.8072 12.6927 27.0572 12.9428C27.3073 13.1928 27.6464 13.3333 28 13.3333C28.3537 13.3333 28.6928 13.1928 28.9428 12.9428C29.1929 12.6927 29.3334 12.3536 29.3334 12L29.3334 3.99999C29.3313 3.82575 29.295 3.65362 29.2267 3.49332C29.0914 3.16752 28.8325 2.90862 28.5067 2.77332C28.3464 2.705 28.1743 2.66876 28 2.66666L20 2.66666C19.6464 2.66666 19.3073 2.80713 19.0572 3.05718C18.8072 3.30723 18.6667 3.64637 18.6667 3.99999C18.6667 4.35361 18.8072 4.69275 19.0572 4.9428C19.3073 5.19285 19.6464 5.33332 20 5.33332Z" fill="#0061FF"/>
</svg>
