<svg width="32" height="32" viewBox="0 0 32 32" fill="none" xmlns="http://www.w3.org/2000/svg">
<path d="M25.3339 4C24.273 4 23.2556 4.42143 22.5055 5.17157C21.7553 5.92172 21.3339 6.93913 21.3339 8V11.7867L9.3339 4.62667C8.67074 4.2309 7.91285 4.02195 7.14057 4.02195C6.36829 4.02195 5.6104 4.2309 4.94723 4.62667C4.25268 5.02137 3.67553 5.59361 3.27489 6.28476C2.87426 6.97591 2.66455 7.76113 2.66723 8.56V23.44C2.65392 24.2515 2.85997 25.0514 3.26362 25.7555C3.66728 26.4595 4.25356 27.0415 4.96057 27.44C5.61517 27.8104 6.35513 28.0034 7.10723 28C7.89225 27.9947 8.66138 27.7783 9.3339 27.3733L21.3339 20.2133V24C21.3339 25.0609 21.7553 26.0783 22.5055 26.8284C23.2556 27.5786 24.273 28 25.3339 28C26.3948 28 27.4122 27.5786 28.1623 26.8284C28.9125 26.0783 29.3339 25.0609 29.3339 24V8C29.3339 6.93913 28.9125 5.92172 28.1623 5.17157C27.4122 4.42143 26.3948 4 25.3339 4ZM20.4272 17.64L8.00057 25.08C7.74349 25.2366 7.44827 25.3195 7.14723 25.3195C6.8462 25.3195 6.55097 25.2366 6.2939 25.08C6.0017 24.9176 5.75846 24.6798 5.58959 24.3913C5.42072 24.1028 5.33241 23.7743 5.3339 23.44V8.56C5.32627 8.22256 5.41028 7.88937 5.57698 7.59588C5.74368 7.30239 5.98683 7.0596 6.28057 6.89333C6.53258 6.74923 6.81696 6.67125 7.10723 6.66667C7.4232 6.66329 7.73341 6.75126 8.00057 6.92L20.4406 14.36C20.7189 14.5337 20.9484 14.7754 21.1075 15.0623C21.2666 15.3492 21.3501 15.6719 21.3501 16C21.3501 16.3281 21.2666 16.6508 21.1075 16.9377C20.9484 17.2246 20.7189 17.4663 20.4406 17.64H20.4272ZM26.6672 24C26.6672 24.3536 26.5268 24.6928 26.2767 24.9428C26.0267 25.1929 25.6875 25.3333 25.3339 25.3333C24.9803 25.3333 24.6411 25.1929 24.3911 24.9428C24.141 24.6928 24.0006 24.3536 24.0006 24V8C24.0006 7.64638 24.141 7.30724 24.3911 7.05719C24.6411 6.80714 24.9803 6.66667 25.3339 6.66667C25.6875 6.66667 26.0267 6.80714 26.2767 7.05719C26.5268 7.30724 26.6672 7.64638 26.6672 8V24Z" fill="#0061FF"/>
</svg>
